<svg xmlns="http://www.w3.org/2000/svg" width="20pt" height="20pt" viewBox="0 0 20 20"><path d="M15.422 8.707L7.27.551c-.739-.735-2.008-.735-2.676 0a1.9 1.9 0 000 2.676l6.75 6.816-6.75 6.75a1.896 1.896 0 000 2.672c.336.336.87.535 1.336.535.468 0 1.004-.2 1.34-.535l8.152-8.086c.336-.336.535-.871.535-1.336 0-.469-.2-1.004-.535-1.336zm-.938 1.734l-8.086 8.09c-.199.2-.601.2-.8 0-.2-.203-.2-.601 0-.804l7.218-7.22a.646.646 0 000-.933L5.531 2.355c-.203-.265-.203-.601 0-.8.133-.133.266-.203.399-.203.136 0 .27.07.402.203l8.152 8.152c.137.133.204.27.204.402-.067.067-.133.266-.204.332zm0 0" id="surface1"/></svg>