<svg xmlns="http://www.w3.org/2000/svg" width="20pt" height="20pt" viewBox="0 0 20 20"><path d="M8.656 9.977l6.75-6.75a1.9 1.9 0 000-2.676c-.734-.735-2.008-.735-2.676 0L4.578 8.637c-.336.336-.535.87-.535 1.34 0 .53.2 1 .535 1.335l8.086 8.153C13 19.8 13.535 20 14 20c.535 0 1.004-.2 1.34-.535a1.896 1.896 0 000-2.672zm5.813 8.484c-.2.203-.602.203-.801 0l-8.152-8.086c-.137-.133-.204-.266-.204-.398 0-.137.067-.27.204-.403l8.152-8.086c.066-.136.2-.203.402-.203.2 0 .266.067.399.203.203.2.203.602 0 .801L7.184 9.508a.605.605 0 00-.2.469.6.6 0 00.2.464l7.218 7.22c.27.269.27.6.067.8zm0 0" id="surface1"/></svg>