<svg width="0" height="0" class="hidden">
  <symbol  style="width: 15.28px; height: 15.281px" xmlns="http://www.w3.org/2000/svg" viewBox="0 0 15.28 15.281" id="search" >
    <path d="M2.98 6.076a.617.617 0 01.75.485 2.583 2.583 0 00.78 1.489A3.036 3.036 0 006 8.827a.636.636 0 01.49.743.649.649 0 01-.72.515 4.21 4.21 0 01-2.14-1.13A4.164 4.164 0 012.5 6.819a.6.6 0 01.48-.743zM6.26 0a6.267 6.267 0 016.28 6.257 6.136 6.136 0 01-.57 2.6l2.34 2.036c1.7 1.746.74 3.266.29 3.717-.42.454-1.99 1.414-3.73-.292l-2.06-2.35A6.261 6.261 0 116.26 0zm5.55 13.517a1.352 1.352 0 001.88.226 1.313 1.313 0 00-.23-1.874l-2.16-1.88a6.236 6.236 0 01-1.37 1.34zm-5.55-2.312a4.948 4.948 0 10-4.97-4.948A4.963 4.963 0 006.26 11.2z"></path>
  </symbol>
  <symbol xmlns="http://www.w3.org/2000/svg" viewBox="0 0 18.94 16.969" id="cart">
    <path d="M5.53 16.978a2.074 2.074 0 110-4.147 2.056 2.056 0 011.46.6 2.03 2.03 0 01.61 1.466 2.071 2.071 0 01-2.07 2.081zm0-2.963a.889.889 0 10.34 1.71.9.9 0 00.55-.824.92.92 0 00-.26-.629.9.9 0 00-.63-.257zm8.39 2.963a2.045 2.045 0 01-1.46-.607 2.068 2.068 0 011.46-3.54 1.953 1.953 0 011.47.6 2.085 2.085 0 01-.67 3.383 2.093 2.093 0 01-.8.164zm0-2.963a.978.978 0 00-.82.548.887.887 0 001.16 1.161.891.891 0 00.29-1.452.9.9 0 00-.63-.257zm-11.27.164a.562.562 0 01-.25-.056.59.59 0 01-.29-.787 3.686 3.686 0 013.05-2.151L4.11 5.794a.591.591 0 111.16-.228l1.09 5.578h9.43l1.8-6.771H4.29A4.346 4.346 0 01.01.68.587.587 0 01.5.007a.6.6 0 01.68.5 3.159 3.159 0 003.11 2.682h14.07a.582.582 0 01.47.232.594.594 0 01.11.513l-2.13 7.956a.59.59 0 01-.57.44H5.88a.03.03 0 00-.02 0 2.66 2.66 0 00-2.68 1.51.586.586 0 01-.53.338z"></path>
  </symbol>
  <symbol xmlns="http://www.w3.org/2000/svg" viewBox="0 0 17.87 15.531" id="heart">
    <path d="M8.94 15.526a.731.731 0 01-.28-.056C8.31 15.32.01 11.721.01 4.71A28.181 28.181 0 0013.06.003a4.817 4.817 0 014.81 4.684c0 7.034-8.29 10.634-8.65 10.783a.7.7 0 01-.28.056zM4.83 1.388a3.427 3.427 0 00-3.41 3.346c0 5.407 6.13 8.662 7.52 9.334 1.4-.672 7.52-3.93 7.52-9.358a3.406 3.406 0 00-6.81.024.709.709 0 01-.71.669.694.694 0 01-.7-.669 3.427 3.427 0 00-3.41-3.347z"></path>
  </symbol>
   <symbol xmlns="http://www.w3.org/2000/svg" viewBox="0 0 6.1 10.97" id="arrow">
    <path d="M.55 10.97a.53.53 0 01-.41-.19.6.6 0 01-.15-.4.631.631 0 01.17-.43l4.55-4.47L.16 1A.607.607 0 01-.01.58.629.629 0 01.14.17a.559.559 0 01.8-.02l4.98 4.9.01.01a.657.657 0 01.12.17.7.7 0 01.05.25.742.742 0 01-.05.25.61.61 0 01-.12.16c0 .01-.01.01-.01.02l-4.98 4.9a.589.589 0 01-.39.16z"></path>
  </symbol>
   <symbol xmlns="http://www.w3.org/2000/svg" viewBox="0 0 250.579 250.579" id="burger">
    <path d="M22.373 76.068h205.832c12.356 0 22.374-10.017 22.374-22.373 0-12.356-10.017-22.373-22.374-22.373H22.373C10.017 31.323 0 41.339 0 53.696c0 12.356 10.017 22.372 22.373 22.372zm205.832 26.848H22.373C10.017 102.916 0 112.933 0 125.289c0 12.357 10.017 22.373 22.373 22.373h205.832c12.356 0 22.374-10.016 22.374-22.373 0-12.356-10.018-22.373-22.374-22.373zm0 71.594H22.373C10.017 174.51 0 184.526 0 196.883c0 12.356 10.017 22.373 22.373 22.373h205.832c12.356 0 22.374-10.017 22.374-22.373 0-12.357-10.018-22.373-22.374-22.373z"></path>
  </symbol>
   <symbol xmlns="http://www.w3.org/2000/svg" viewBox="0 0 512 512" id="user">
    <path d="M437.02 330.98c-27.883-27.882-61.071-48.523-97.281-61.018C378.521 243.251 404 198.548 404 148 404 66.393 337.607 0 256 0S108 66.393 108 148c0 50.548 25.479 95.251 64.262 121.962-36.21 12.495-69.398 33.136-97.281 61.018C26.629 379.333 0 443.62 0 512h40c0-119.103 96.897-216 216-216s216 96.897 216 216h40c0-68.38-26.629-132.667-74.98-181.02zM256 256c-59.551 0-108-48.448-108-108S196.449 40 256 40s108 48.448 108 108-48.449 108-108 108z"></path>
  </symbol>
  <symbol xmlns="http://www.w3.org/2000/svg" viewBox="0 0 22.66 14.38" id="g+">
    <path d="M6.72 14.35A7.121 7.121 0 01.13 8.7a6.6 6.6 0 01-.14-1.93A7.277 7.277 0 015.48.21 5.282 5.282 0 016.66.02c.23-.01.46-.02.69-.02a6.786 6.786 0 013.4.93 9.386 9.386 0 011.27.93c-.72.71-1.41 1.4-2.11 2.09a3.914 3.914 0 00-2.1-1.02 4.259 4.259 0 00-.61-.04 4.307 4.307 0 00-4.14 3.35 3.817 3.817 0 00-.1 1.3 4.3 4.3 0 002.94 3.74 4.35 4.35 0 001.25.19c.1 0 .2-.01.3-.01a4.2 4.2 0 002.09-.67 3.314 3.314 0 001.43-2.17H7.12c0-.09.02-1.89.02-2.76l.01-.12h6.76a7.773 7.773 0 01-1.28 6.05 6.273 6.273 0 01-3.55 2.32 7.539 7.539 0 01-1.94.25c-.14 0-.28 0-.42-.01zm13.33-4.05h-1.89v-.07l.02-2.43h-2.51v-.08l.02-1.82v-.07h2.5l.02-2.43v-.07h1.96v.07l-.02 2.43h2.51v.07l-.01 1.82v.08h-2.51l-.02 2.43v.07h-.07z"  fill-rule="evenodd"></path>
  </symbol>
  <symbol xmlns="http://www.w3.org/2000/svg" viewBox="0 0 17.19 17.19" id="inst">
    <path d="M3.59 16.94a4.322 4.322 0 01-3.43-3.75C-.07 11.74-.09 5 .33 3.54A4.387 4.387 0 014.08.19 34.173 34.173 0 018.39 0c1.6 0 3.22.04 4.19.1a4.724 4.724 0 013.14 1.28 4.517 4.517 0 011.38 2.94c.12 1.35.21 7.74-.19 9.24a4.411 4.411 0 01-3.8 3.44 42.333 42.333 0 01-4.74.19 29.143 29.143 0 01-4.78-.25zm.92-15.26a2.958 2.958 0 00-2.75 2.59 57.587 57.587 0 00-.06 8.69 2.8 2.8 0 002.12 2.43 27.569 27.569 0 004.63.25c1.8 0 3.57-.06 4.24-.13a2.941 2.941 0 002.75-2.6 61.315 61.315 0 00.11-8.45 2.9 2.9 0 00-2.58-2.74 40.212 40.212 0 00-4.3-.16c-1.71 0-3.41.04-4.16.12zM4.19 8.6a4.445 4.445 0 014.45-4.41 4.37 4.37 0 014.37 4.41 4.458 4.458 0 01-4.45 4.41A4.37 4.37 0 014.19 8.6zm1.55-.03a2.834 2.834 0 002.81 2.88h.02a2.882 2.882 0 002.88-2.82 2.82 2.82 0 00-2.8-2.88h-.03a2.881 2.881 0 00-2.88 2.82zm6.45-4.55a1.029 1.029 0 011.03-1.03h.01a1.016 1.016 0 011.02 1.04 1.035 1.035 0 01-1.04 1.02 1.014 1.014 0 01-1.02-1.03z"></path>
  </symbol>
  <symbol xmlns="http://www.w3.org/2000/svg" viewBox="0 -10 511.987 511" id="star">
    <path d="M510.652 185.902a27.158 27.158 0 00-23.425-18.71l-147.774-13.419-58.433-136.77C276.71 6.98 266.898.494 255.996.494s-20.715 6.487-25.023 16.534l-58.434 136.746-147.797 13.418a27.208 27.208 0 00-23.402 18.71c-3.371 10.368-.258 21.739 7.957 28.907l111.7 97.96-32.938 145.09c-2.41 10.668 1.73 21.696 10.582 28.094 4.757 3.438 10.324 5.188 15.937 5.188 4.84 0 9.64-1.305 13.95-3.883l127.468-76.184 127.422 76.184c9.324 5.61 21.078 5.097 29.91-1.305a27.223 27.223 0 0010.582-28.094l-32.937-145.09 111.699-97.94a27.224 27.224 0 007.98-28.927zm0 0"></path>
  </symbol>
   <symbol xmlns="http://www.w3.org/2000/svg" viewBox="0 0 14.31 11.62" id="twit">
    <path d="M14.31 1.4c-.11.16-.21.3-.33.45a5.7 5.7 0 01-1.07 1.01l-.05.09a8.22 8.22 0 01-.07 1.31 8.818 8.818 0 01-.77 2.61 8.712 8.712 0 01-1.6 2.3 7.864 7.864 0 01-4.05 2.25 8.967 8.967 0 01-1.64.2h-.26a8.172 8.172 0 01-4.42-1.27l-.07-.04a5.322 5.322 0 00.69.04 6.049 6.049 0 002.25-.44 5.834 5.834 0 001.4-.82 2.9 2.9 0 01-2.71-2.03 3.287 3.287 0 00.54.05 2.82 2.82 0 00.71-.09L2.91 7A2.9 2.9 0 01.59 4.1a2.914 2.914 0 001.31.35A2.914 2.914 0 01.7 2.67 2.877 2.877 0 011.04.55a8.311 8.311 0 006.02 3.07c-.02-.12-.03-.22-.05-.33a2.8 2.8 0 01.45-1.91A2.853 2.853 0 019.45.05a3.439 3.439 0 01.54-.04 2.833 2.833 0 012.03.86.139.139 0 00.1.05.09.09 0 00.05-.01 5.547 5.547 0 001.71-.65l.04-.02a2.919 2.919 0 01-1.25 1.6 5.859 5.859 0 001.64-.44z" fill-rule="evenodd"></path>
  </symbol>
  <symbol xmlns="http://www.w3.org/2000/svg" viewBox="0 0 8.13 15.43" id="fb">
    <path d="M6.1-.01c.41 0 .83.03 1.24.05.27.01.54.04.79.07L8.11 2.6h-.2c-.27 0-.54-.01-.82-.01-.2 0-.4.01-.61.01A1.041 1.041 0 005.3 3.69c-.02.6-.03 1.9-.03 1.97.03 0 .68.01 1.34.01.32 0 .64 0 .87-.01h.53c-.13.96-.26 1.87-.39 2.8H5.27l-.06 6.97H2.32l.06-6.99H.01l.02-2.77h2.38v-.21c.01-.56 0-1.12.02-1.68a7.581 7.581 0 01.09-1.06A3.145 3.145 0 013.79.64 3.6 3.6 0 015.87 0c.08 0 .15-.01.23-.01z" fill-rule="evenodd"></path>
  </symbol>
  <symbol xmlns="http://www.w3.org/2000/svg" viewBox="0 0 18.03 11.41" id="google+">
    <path d="M5.36 11.39A5.653 5.653 0 01.12 6.9a5.314 5.314 0 01-.11-1.54A5.573 5.573 0 011.3 2.11 5.683 5.683 0 014.37.15a4.271 4.271 0 01.94-.14c.18-.01.36-.02.55-.02a5.311 5.311 0 012.69.74 6.276 6.276 0 011.01.74c-.57.56-1.11 1.11-1.67 1.66a3.053 3.053 0 00-1.67-.81 4.051 4.051 0 00-.48-.04 3.429 3.429 0 00-3.29 2.67 2.977 2.977 0 00-.08 1.03A3.429 3.429 0 004.7 8.95a3.365 3.365 0 001 .15c.08 0 .15-.01.23-.01a3.427 3.427 0 001.67-.53 2.65 2.65 0 001.13-1.72H5.68c0-.08.01-1.5.01-2.2l.01-.09h5.36a6.171 6.171 0 01-1.01 4.81 5.029 5.029 0 01-2.82 1.84 6.2 6.2 0 01-1.54.2c-.11 0-.22-.01-.33-.01zm10.59-3.22h-1.51v-.06l.02-1.93h-1.99v-.06l.01-1.44v-.06h1.99l.01-1.93.01-.06h1.55v.06l-.01 1.93h1.99v.06l-.01 1.44v.06h-1.99L16 8.11v.06h-.05z" fill-rule="evenodd"></path>
  </symbol>
  <symbol xmlns="http://www.w3.org/2000/svg" viewBox="0 0 13.63 13.66" id="instag">
    <path d="M2.84 13.46a3.431 3.431 0 01-2.72-2.98 38.588 38.588 0 01.13-7.67A3.483 3.483 0 013.23.16 27.381 27.381 0 016.65.01c1.28 0 2.56.03 3.33.07a3.78 3.78 0 012.5 1.02 3.638 3.638 0 011.09 2.33 43.2 43.2 0 01-.15 7.35 3.485 3.485 0 01-3.02 2.73 32.586 32.586 0 01-3.76.15 23.5 23.5 0 01-3.8-.2zm.73-12.12A2.349 2.349 0 001.39 3.4a45.652 45.652 0 00-.05 6.9 2.224 2.224 0 001.69 1.93 20.971 20.971 0 003.67.2c1.43 0 2.84-.05 3.37-.1a2.341 2.341 0 002.18-2.07 48.648 48.648 0 00.09-6.71 2.3 2.3 0 00-2.05-2.18 30.906 30.906 0 00-3.41-.13c-1.36 0-2.72.04-3.31.1zm-.25 5.5a3.517 3.517 0 013.53-3.5 3.459 3.459 0 013.47 3.5 3.53 3.53 0 01-3.53 3.5 3.466 3.466 0 01-3.47-3.5zm1.23-.03A2.252 2.252 0 006.78 9.1h.02a2.284 2.284 0 002.28-2.24 2.237 2.237 0 00-2.22-2.29h-.02a2.293 2.293 0 00-2.29 2.24zM9.67 3.2a.824.824 0 01.82-.82h.01a.815.815 0 01.81.82.826.826 0 01-.83.82.815.815 0 01-.81-.82z" fill-rule="evenodd"></path>
  </symbol>
   <symbol xmlns="http://www.w3.org/2000/svg" viewBox="0 0 22 9" id="arrow-r">
    <path d="M.3 5.47h16.94l-.1 2.86a.3.3 0 00-.08.2.323.323 0 00.08.21l.18.17a.267.267 0 00.4 0l4.2-4.21a.3.3 0 00.08-.2.323.323 0 00-.08-.21L17.72.08a.29.29 0 00-.4 0l-.18.17a.323.323 0 00-.08.21.318.318 0 00.08.2l.12 2.86H.29a.3.3 0 00-.29.3v1.37a.291.291 0 00.3.28z" fill="#a3bbc8" fill-rule="evenodd"></path>
  </symbol>
  <symbol xmlns="http://www.w3.org/2000/svg" viewBox="0 0 22 9" id="arrow-l">
    <path d="M21.7 3.53H4.76l.1-2.86a.3.3 0 00.08-.2.323.323 0 00-.08-.21L4.68.09a.267.267 0 00-.4 0L.08 4.3a.3.3 0 00-.08.2.323.323 0 00.08.21l4.2 4.21a.29.29 0 00.4 0l.18-.17a.323.323 0 00.08-.21.3.3 0 00-.08-.2l-.12-2.86h16.97a.3.3 0 00.29-.3V3.81a.291.291 0 00-.3-.28z" fill="#a3bbc8" fill-rule="evenodd"></path>
  </symbol>
   <symbol xmlns="http://www.w3.org/2000/svg" viewBox="0 0 50 50" id="restaurant">
    <path d="M2.344 20.594v20.043c0 1.074.875 1.953 1.953 1.953a1.956 1.956 0 001.953-1.953V20.594a3.125 3.125 0 002.344-3.016V8.203a.781.781 0 10-1.563 0v6.25H6.25v-6.25a.781.781 0 10-1.563 0v6.25h-.78v-6.25a.781.781 0 10-1.563 0v6.25h-.781v-6.25a.781.781 0 10-1.563 0v9.375c0 1.453 1 2.664 2.344 3.016zm2.344 20.043a.392.392 0 01-.781 0V20.703h.78zM1.563 16.016H7.03v1.562c0 .863-.703 1.563-1.562 1.563H3.125c-.863 0-1.563-.7-1.563-1.563zm42.968-8.602a.779.779 0 00-.781.781v32.442a1.954 1.954 0 003.906 0V26.96h1.563a.781.781 0 00.781-.78V12.883a5.475 5.475 0 00-5.469-5.469zm1.563 33.223c0 .215-.176.39-.39.39a.392.392 0 01-.392-.39V26.96h.782zm2.343-15.239h-3.124V9.055a3.913 3.913 0 013.124 3.828zm0 0"></path>
    <path d="M25.39 7.41c-9.69 0-17.578 7.887-17.578 17.578 0 9.692 7.887 17.578 17.579 17.578 9.691 0 17.578-7.886 17.578-17.578 0-9.691-7.887-17.578-17.578-17.578zm0 33.594c-8.831 0-16.015-7.184-16.015-16.016 0-8.832 7.184-16.015 16.016-16.015 8.832 0 16.015 7.183 16.015 16.015s-7.183 16.016-16.015 16.016zm0 0"></path>
    <path d="M25.39 12.879c-6.68 0-12.109 5.434-12.109 12.11 0 6.679 5.43 12.109 12.11 12.109 6.675 0 12.109-5.43 12.109-12.11 0-6.675-5.434-12.11-12.11-12.11zm0 22.656c-5.816 0-10.546-4.73-10.546-10.547 0-5.816 4.73-10.547 10.547-10.547 5.816 0 10.547 4.73 10.547 10.547S31.206 35.535 25.39 35.535zm0 0"></path>
  </symbol>
  <symbol xmlns="http://www.w3.org/2000/svg" viewBox="0 0 50 50" id="chef-hat">
    <path d="M40.617 6.25H34.36a11.716 11.716 0 00-9.351-4.688A11.692 11.692 0 0015.66 6.25H9.383C4.21 6.25.008 10.457.008 15.625c0 4.906 3.789 8.938 8.594 9.336v19.57a3.913 3.913 0 003.906 3.907h25.004c2.144-.008 3.886-1.766 3.886-3.915V24.961c4.805-.398 8.594-4.43 8.594-9.336 0-5.168-4.203-9.375-9.375-9.375zm-2.355 40.484a.77.77 0 00-.754-.64.779.779 0 00-.781.781h-1.563a.779.779 0 00-.781-.781.779.779 0 00-.781.781h-1.563a.779.779 0 00-.781-.781.779.779 0 00-.781.781h-1.563a.779.779 0 00-.781-.781.779.779 0 00-.781.781h-1.563a.779.779 0 00-.781-.781.779.779 0 00-.781.781h-1.563a.779.779 0 00-.781-.781.779.779 0 00-.781.781h-1.563a.779.779 0 00-.781-.781.779.779 0 00-.781.781h-1.563a.779.779 0 00-.781-.781.779.779 0 00-.781.781h-1.563a.779.779 0 00-.781-.781.771.771 0 00-.754.644 2.338 2.338 0 01-1.59-2.207h29.672a2.35 2.35 0 01-1.574 2.203zm2.355-23.297a.779.779 0 00-.781.782v18.75H10.164v-18.75a.779.779 0 00-.781-.782c-4.309 0-7.813-3.503-7.813-7.812s3.504-7.813 7.813-7.813h5.273a11.594 11.594 0 00-1.367 5.47c0 .433.348.78.781.78a.779.779 0 00.782-.78c0-2.09.632-4.095 1.828-5.805a10.132 10.132 0 018.328-4.352c3.32 0 6.437 1.629 8.336 4.352a10.11 10.11 0 011.82 5.804c0 .434.348.781.781.781a.779.779 0 00.782-.78c0-1.927-.473-3.79-1.36-5.47h5.25c4.309 0 7.813 3.504 7.813 7.813 0 4.309-3.504 7.813-7.813 7.813zm0 0"></path>
    <path d="M25 21.09a.781.781 0 00-.781.781v14.84c0 .434.347.781.781.781a.779.779 0 00.781-.781V21.87a.781.781 0 00-.781-.78zm-7.031 0a.781.781 0 00-.782.781v14.84c0 .434.348.781.782.781a.779.779 0 00.781-.781V21.87a.781.781 0 00-.781-.781zm14.062 0a.781.781 0 00-.781.781v14.84c0 .434.348.781.781.781a.779.779 0 00.782-.781V21.87a.781.781 0 00-.782-.781zm0 0"></path>
  </symbol>
  <symbol xmlns="http://www.w3.org/2000/svg" viewBox="0 0 50 50" id="shopping-bag">
    <path d="M46.684 48.355l-3.797-36.187a1.49 1.49 0 00-1.48-1.332h-7.145V9.207c0-5.078-4.13-9.207-9.207-9.207-5.075 0-9.207 4.129-9.207 9.207v1.629H8.707c-.762 0-1.402.574-1.48 1.332L3.426 48.355A1.489 1.489 0 004.906 50h40.297a1.489 1.489 0 001.48-1.645zM18.824 9.207a6.237 6.237 0 016.23-6.23 6.235 6.235 0 016.231 6.23v1.629h-12.46zM6.56 47.023l3.488-33.21h5.8v3.277a1.488 1.488 0 102.977 0v-3.277h12.461v3.277a1.488 1.488 0 102.977 0v-3.277h5.804l3.485 33.21zm0 0"></path>
  </symbol>
  <symbol xmlns="http://www.w3.org/2000/svg" viewBox="0 0 163.861 163.861" id="play">
    <path d="M34.857 3.613C20.084-4.861 8.107 2.081 8.107 19.106v125.637c0 17.042 11.977 23.975 26.75 15.509L144.67 97.275c14.778-8.477 14.778-22.211 0-30.686L34.857 3.613z"></path>
  </symbol>
   <symbol xmlns="http://www.w3.org/2000/svg" viewBox="0 0 512 512" id="google">
    <path d="M512 256c0-16.084-1.509-32.183-4.497-47.813-1.348-7.075-7.544-12.188-14.736-12.188H257c-8.291 0-15 6.709-15 15v90c0 8.291 6.709 15 15 15h120.967c-7.537 15.258-17.924 28.497-30.121 39.635l84.78 84.78C481.407 393.939 512 328.539 512 256zM256 120c29.429 0 57.422 9.346 80.947 27.041 5.947 4.468 14.341 3.926 19.614-1.392l64.014-64.014c2.974-2.974 4.57-7.061 4.38-11.265s-2.124-8.13-5.347-10.84C373.803 21.138 315.692 0 256 0 168.151 0 90.542 44.654 44.663 112.452l88.048 88.048C153.717 153.184 200.979 120 256 120zm0 392c57.263 0 109.993-19.2 152.602-51.187l-86.371-86.371C302.489 385.558 279.925 392 256 392c-55.021 0-102.283-33.184-123.289-80.5l-88.048 88.048C90.542 467.346 168.151 512 256 512zM122.184 277.605C121.035 270.526 120 263.397 120 256s1.035-14.526 2.184-21.605L28.06 140.271C10.252 175.051 0 214.316 0 256s10.252 80.949 28.061 115.728z"></path>
  </symbol>
    <symbol xmlns="http://www.w3.org/2000/svg" viewBox="0 0 512 512" id="down-arrow">
    <path d="M498.347 117.973c-18.773-18.773-51.2-18.773-68.267 0L256 290.346 83.627 117.973c-8.534-8.534-22.186-13.653-34.133-13.653-13.653 0-25.6 5.12-34.133 13.653C5.12 128.213 0 140.159 0 153.813s5.12 25.6 13.653 34.133l208.213 206.507c8.534 8.534 22.187 13.653 34.133 13.653 11.947 0 25.6-5.12 34.133-13.653L498.347 186.24C506.88 177.706 512 164.053 512 152.106s-5.12-25.6-13.653-34.133zm-25.6 44.373L266.24 370.56c-5.12 5.12-15.36 5.12-20.48 0L39.253 164.053c-3.413-3.413-5.12-6.827-5.12-10.24s1.706-6.827 5.12-10.24 6.827-5.12 10.24-5.12 6.827 1.707 10.24 5.12l184.32 184.32c3.413 3.413 6.827 5.12 11.946 5.12 5.12 0 8.534-1.707 11.947-5.12l184.32-186.027c5.12-5.12 15.36-5.12 20.48 0 3.413 3.413 5.12 6.827 5.12 10.24.001 5.12-1.706 8.533-5.119 10.24z"></path>
  </symbol>
</svg>
